<svg width="43" height="44" viewBox="0 0 43 44" fill="none" xmlns="http://www.w3.org/2000/svg">
<path d="M42.7371 27.1573C42.5033 28.5783 42.3305 29.9871 42.0279 31.3675C41.6072 33.2861 40.8518 35.0823 39.7363 36.7113C38.8841 37.9559 37.8496 39.0262 36.6367 39.9285C34.7908 41.3016 32.7125 42.1295 30.4813 42.6198C28.57 43.0399 26.6334 43.2676 24.6859 43.4198C22.8345 43.5645 20.9794 43.5784 19.1286 43.4652C17.0884 43.3405 15.0622 43.0815 13.0599 42.6493C11.8136 42.3802 10.5982 42.0154 9.43754 41.4956C7.89521 40.805 6.50486 39.8838 5.30041 38.681C4.11027 37.4925 3.18418 36.127 2.47434 34.614C1.87517 33.337 1.46601 31.993 1.1715 30.6129C0.766475 28.7148 0.602075 26.7881 0.474577 24.8576C0.3288 22.6502 0.355146 20.4424 0.542322 18.2388C0.700741 16.3737 0.950466 14.5203 1.42469 12.7052C1.85556 11.056 2.48256 9.48571 3.3909 8.03824C4.16275 6.80827 5.10916 5.72856 6.22816 4.79847C8.17668 3.17891 10.4273 2.21154 12.8868 1.6928C16.2087 0.992141 19.5719 0.710582 22.961 0.795411C25.9932 0.871303 28.9924 1.23744 31.9168 2.07955C34.0541 2.69502 35.9911 3.69714 37.6471 5.19766C39.0212 6.44272 40.0798 7.92096 40.8701 9.60134C41.7208 11.41 42.1811 13.3229 42.4966 15.2831C43.0455 18.6931 43.1084 22.1189 42.8635 25.5564C42.826 26.082 42.7815 26.6071 42.7371 27.1573ZM4.21227 15.2216C3.82911 17.3827 3.64715 19.5633 3.66044 21.7555C3.6688 23.135 3.73203 24.5161 3.82665 25.8926C3.94435 27.6049 4.16135 29.3045 4.61793 30.9689C5.09953 32.7246 5.83995 34.3407 7.01906 35.7408C8.07446 36.9941 9.38377 37.8999 10.8731 38.5602C12.3047 39.1948 13.8263 39.4993 15.3559 39.7619C17.1573 40.0712 18.9753 40.2248 20.8031 40.2558C23.4619 40.3008 26.1011 40.0995 28.7225 39.6467C30.5328 39.334 32.2691 38.8282 33.8577 37.8708C35.3184 36.9904 36.4801 35.8176 37.3641 34.3685C38.2545 32.9089 38.7694 31.3039 39.09 29.6384C39.56 27.1961 39.713 24.721 39.7421 22.2392C39.7626 20.4943 39.6642 18.7534 39.4406 17.0203C39.2058 15.1994 38.9093 13.3942 38.2231 11.6765C37.7027 10.3737 36.9975 9.18154 36.0274 8.16652C34.553 6.62386 32.7376 5.65769 30.6856 5.1197C27.8406 4.37379 24.9419 4.04506 22.0054 4.04814C20.1697 4.05006 18.3346 4.11839 16.5167 4.39261C15.3243 4.57247 14.1305 4.76428 12.9551 5.02963C11.3065 5.4018 9.80366 6.12576 8.46693 7.16368C7.16672 8.17325 6.21088 9.46716 5.50654 10.9451C4.86621 12.2887 4.47514 13.7126 4.21227 15.2216Z" fill="#151A45"/>
<path d="M4.21681 15.1985C4.47518 13.7123 4.86625 12.2884 5.50658 10.9448C6.21092 9.46689 7.16676 8.17298 8.46697 7.16342C9.8037 6.1255 11.3066 5.40153 12.9551 5.02936C14.1305 4.76401 15.3244 4.5722 16.5167 4.39234C18.3346 4.11812 20.1697 4.0498 22.0054 4.04787C24.942 4.0448 27.8406 4.37352 30.6856 5.11944C32.7376 5.65743 34.5531 6.62359 36.0275 8.16625C36.9976 9.18127 37.7027 10.3734 38.2232 11.6762C38.9094 13.3939 39.2058 15.1991 39.4407 17.0201C39.6642 18.7531 39.7626 20.494 39.7422 22.239C39.713 24.7207 39.5601 27.1958 39.09 29.6381C38.7695 31.3037 38.2546 32.9087 37.3641 34.3682C36.4801 35.8173 35.3185 36.9901 33.8577 37.8705C32.2692 38.828 30.5329 39.3338 28.7225 39.6465C26.1011 40.0993 23.462 40.3005 20.8032 40.2555C18.9753 40.2246 17.1573 40.0709 15.3559 39.7616C13.8264 39.499 12.3047 39.1946 10.8732 38.56C9.38381 37.8997 8.0745 36.9938 7.0191 35.7406C5.83999 34.3404 5.09957 32.7243 4.61797 30.9687C4.16139 29.3042 3.94439 27.6047 3.82669 25.8923C3.73207 24.5158 3.66884 23.1347 3.66048 21.7552C3.64719 19.5631 3.82915 17.3824 4.21681 15.1985ZM14.2437 22.4961C14.2586 22.5485 14.2722 22.6012 14.2886 22.6532C14.5445 23.4647 15.3979 23.9813 16.2294 23.8284C17.0952 23.6691 17.719 22.8725 17.6559 22.0066C17.5836 21.0129 16.6975 20.296 15.6919 20.4177C14.7284 20.5342 14.0611 21.4651 14.2437 22.4961ZM25.768 21.5679C25.7471 21.6561 25.7225 21.7436 25.7058 21.8327C25.5458 22.689 26.0894 23.5543 26.931 23.7849C27.783 24.0184 28.7041 23.5684 29.0099 22.7693C29.3488 21.8834 28.9221 20.8748 28.0611 20.5268C27.1565 20.1612 26.1534 20.6015 25.768 21.5679ZM22.4536 23.6995C23.1259 23.39 23.518 22.6515 23.4223 22.1368C22.2936 22.1368 21.163 22.1368 20.0341 22.1368C19.9313 23.185 21.1334 24.2469 22.4536 23.6995Z" fill="#00FFA3"/>
<path d="M14.2384 22.4736C14.0609 21.4647 14.7283 20.5338 15.6917 20.4173C16.6973 20.2956 17.5834 21.0125 17.6558 22.0062C17.7188 22.8721 17.095 23.6687 16.2292 23.828C15.3977 23.9809 14.5444 23.4643 14.2884 22.6528C14.272 22.6009 14.2584 22.5481 14.2384 22.4736Z" fill="#141B45"/>
<path d="M25.7756 21.5476C26.1535 20.6018 27.1566 20.1615 28.0612 20.5271C28.9222 20.875 29.3489 21.8837 29.01 22.7696C28.7042 23.5687 27.7831 24.0187 26.9311 23.7852C26.0894 23.5546 25.5458 22.6893 25.7059 21.8329C25.7225 21.7439 25.7472 21.6564 25.7756 21.5476Z" fill="#141B45"/>
<path d="M22.4349 23.7093C21.1334 24.2474 19.9313 23.1854 20.0341 22.1372C21.163 22.1372 22.2936 22.1372 23.4224 22.1372C23.518 22.6519 23.1259 23.3905 22.4349 23.7093Z" fill="#131F47"/>
</svg>
