<svg width="42" height="42" viewBox="0 0 42 42" fill="none" xmlns="http://www.w3.org/2000/svg">
<path d="M0 21C0 13.1718 0 9.25766 1.67583 6.33856C2.78952 4.39866 4.39866 2.78952 6.33856 1.67583C9.25766 0 13.1718 0 21 0C28.8282 0 32.7423 0 35.6614 1.67583C37.6013 2.78952 39.2105 4.39866 40.3242 6.33856C42 9.25766 42 13.1718 42 21C42 28.8282 42 32.7423 40.3242 35.6614C39.2105 37.6013 37.6013 39.2105 35.6614 40.3242C32.7423 42 28.8282 42 21 42C13.1718 42 9.25766 42 6.33856 40.3242C4.39866 39.2105 2.78952 37.6013 1.67583 35.6614C0 32.7423 0 28.8282 0 21Z" fill="#1F2539"/>
<path d="M27.5844 20.0499C28.0091 20.1985 28.3866 20.3047 28.7429 20.4604C30.8004 21.3582 32.1171 22.9214 32.5607 25.1017C33.075 27.6358 32.1619 29.9966 29.9817 31.6022C28.7759 32.4894 27.4157 32.8469 25.9268 32.8422C23.789 32.8351 21.6501 32.8799 19.5123 32.8764C19.2422 32.8764 18.9366 32.7679 18.7113 32.6157C18.2641 32.3125 18.165 31.9208 18.3196 31.4418C18.4671 30.9852 18.8116 30.6997 19.3271 30.6903C20.5175 30.669 21.7067 30.6761 22.8971 30.6726C24.0604 30.669 25.2248 30.6749 26.3881 30.6631C28.5199 30.6431 30.3592 28.7826 30.4748 26.6531C30.5928 24.4823 28.9871 22.6407 26.8765 22.1947C26.7868 22.1758 26.6925 22.1723 26.6004 22.1723C24.6161 22.1711 22.6328 22.1711 20.6485 22.1723C20.5977 22.1723 20.5458 22.1805 20.4326 22.19C20.4326 22.6371 20.4314 23.0795 20.4326 23.522C20.4337 24.0116 20.4444 24.5012 20.4361 24.9896C20.4326 25.222 20.5081 25.327 20.7535 25.3258C21.9521 25.3176 23.1508 25.3282 24.3482 25.3058C24.5229 25.3022 24.7234 25.189 24.8626 25.0698C25.7132 24.3372 26.5037 24.4752 27.1195 24.887C27.9536 25.445 28.1542 26.3982 27.7354 27.2713C27.2646 28.2517 25.7911 28.562 24.9924 27.827C24.7387 27.5934 24.4886 27.4978 24.1489 27.5002C22.5491 27.512 20.9481 27.5061 19.3484 27.499C18.6452 27.4954 18.2405 27.1038 18.237 26.3971C18.2287 24.625 18.2287 22.8542 18.2417 21.0822C18.2476 20.3448 18.5048 20.0216 19.2445 19.9838C20.4054 19.9248 21.5699 19.9425 22.7331 19.9402C25.3499 19.9343 27.3142 17.6455 26.9284 15.063C26.6582 13.252 25.2295 11.9779 23.6416 11.5697C23.264 11.4729 22.8546 11.4788 22.4594 11.4776C19.6822 11.467 16.905 11.4422 14.1278 11.4812C13.4943 11.4906 12.8537 10.9373 12.8596 10.3403C12.8667 9.7174 13.4353 9.2042 14.1396 9.2042C15.8326 9.2042 17.5256 9.2101 19.2174 9.21128C20.3807 9.21246 21.5451 9.19122 22.7084 9.2101C25.6248 9.25965 28.1695 11.0918 29.0036 13.9964C29.5888 16.0351 29.17 17.9369 27.8805 19.6346C27.7932 19.7479 27.7141 19.867 27.5844 20.0499Z" fill="url(#paint0_linear_22_273)"/>
<path d="M15.1307 16.7949C15.1307 17.0155 15.1307 17.196 15.1307 17.3765C15.1236 21.2922 15.1165 25.2067 15.1094 29.1223C15.1082 29.9553 15.1224 30.7882 15.1059 31.6211C15.087 32.6027 14.3603 33.0935 13.4554 32.723C12.9634 32.5213 12.9068 32.0388 12.9009 31.5893C12.8844 30.2007 12.8938 28.8121 12.8926 27.4223C12.8879 23.6918 12.882 19.9626 12.8796 16.2321C12.8796 16.008 12.8832 15.7814 12.9103 15.5597C12.9764 15.0004 13.3917 14.6312 13.9497 14.63C16.1854 14.6264 18.4211 14.6253 20.6555 14.6229C20.9281 14.6229 21.1569 14.6135 21.3811 14.3586C21.9297 13.7357 22.975 13.8053 23.4375 14.0425C24.1701 14.4176 24.5618 15.1208 24.4839 15.8782C24.4037 16.6627 23.8551 17.2845 23.0599 17.4933C22.3639 17.6762 21.8011 17.4119 21.2867 16.9707C21.1959 16.8928 21.0732 16.802 20.9635 16.8008C19.0452 16.7925 17.128 16.7949 15.1307 16.7949Z" fill="url(#paint1_linear_22_273)"/>
<defs>
<linearGradient id="paint0_linear_22_273" x1="2.72889" y1="33.5083" x2="29.0522" y2="2.09932" gradientUnits="userSpaceOnUse">
<stop stop-color="#FF4764"/>
<stop offset="1" stop-color="#FF6A58"/>
</linearGradient>
<linearGradient id="paint1_linear_22_273" x1="9.1797" y1="28.5437" x2="23.631" y2="14.0923" gradientUnits="userSpaceOnUse">
<stop stop-color="#EF3A56"/>
<stop offset="1" stop-color="#F37161"/>
</linearGradient>
</defs>
</svg>
