<svg width="43" height="43" viewBox="0 0 43 43" fill="none" xmlns="http://www.w3.org/2000/svg">
<path d="M0 13.5163C0 6.53765 5.65728 0.880371 12.6359 0.880371H29.4837C36.4623 0.880371 42.1196 6.53765 42.1196 13.5163V30.3641C42.1196 37.3427 36.4623 43 29.4837 43H12.6359C5.65728 43 0 37.3427 0 30.3641V13.5163Z" fill="white"/>
<path fill-rule="evenodd" clip-rule="evenodd" d="M29.4837 2.84595H12.6359C6.74284 2.84595 1.96558 7.62321 1.96558 13.5163V30.3641C1.96558 36.2572 6.74284 41.0344 12.6359 41.0344H29.4837C35.3768 41.0344 40.154 36.2572 40.154 30.3641V13.5163C40.154 7.62321 35.3768 2.84595 29.4837 2.84595ZM12.6359 0.880371C5.65728 0.880371 0 6.53765 0 13.5163V30.3641C0 37.3427 5.65728 43 12.6359 43H29.4837C36.4623 43 42.1196 37.3427 42.1196 30.3641V13.5163C42.1196 6.53765 36.4623 0.880371 29.4837 0.880371H12.6359Z" fill="url(#paint0_angular_24_375)" fill-opacity="0.44"/>
<path d="M27.5646 18.2662C26.4315 18.2662 25.514 17.3486 25.514 16.2156C25.514 15.0826 26.4315 14.1651 27.5646 14.1651C28.6976 14.1651 29.6151 15.0826 29.6151 16.2156C29.6151 17.3486 28.6976 18.2662 27.5646 18.2662Z" fill="#6518B6"/>
<path d="M26.3769 33.8453C26.3756 30.387 26.3756 26.9548 26.3756 23.502C26.2738 23.4951 26.1926 23.4847 26.1114 23.4847C23.2421 23.4839 20.3728 23.4789 17.5034 23.4867C16.4169 23.4896 15.4494 23.8019 14.7095 24.6536C14.34 25.079 14.0874 25.566 14.0749 26.1261C14.0489 27.3013 14.0298 28.4788 14.0765 29.6526C14.1183 30.7031 14.7748 31.3757 15.6462 31.8712C16.2467 32.2126 16.9045 32.2996 17.5764 32.3034C19.0157 32.3117 20.4551 32.3102 21.8945 32.3043C22.5244 32.3017 23.0033 32.5411 23.2963 33.1124C23.7322 33.9622 23.1091 35.0893 22.1555 35.1013C20.3309 35.1244 18.5014 35.1804 16.6819 35.0791C14.4303 34.9537 12.0619 33.3157 11.3944 30.7651C11.2864 30.3524 11.2551 29.9111 11.2482 29.482C11.23 28.3629 11.2217 27.2426 11.2524 26.1239C11.2952 24.5637 11.9655 23.2883 13.1141 22.2513C13.1751 22.1962 13.2379 22.1432 13.2799 22.1065C12.9262 21.7018 12.5536 21.3291 12.2436 20.91C11.5585 19.9838 11.2231 18.936 11.2372 17.7759C11.2502 16.713 11.2226 15.6494 11.2477 14.5869C11.2907 12.7604 12.0978 11.325 13.5674 10.2626C14.712 9.43514 15.9968 9.02186 17.4152 9.0235C20.8396 9.02748 24.264 9.02338 27.6884 9.0255C28.4787 9.02599 29.0366 9.47142 29.16 10.1851C29.3051 11.0236 28.7213 11.771 27.8713 11.8316C27.7496 11.8403 27.6268 11.8363 27.5046 11.8363C24.1931 11.8365 20.8816 11.833 17.5701 11.8388C16.6674 11.8404 15.8165 12.0301 15.1007 12.6292C14.4386 13.1833 14.0548 13.8749 14.0533 14.7537C14.0515 15.7509 14.0503 16.7481 14.0534 17.7453C14.0571 18.9047 14.6691 19.675 15.6369 20.2226C16.2296 20.558 16.8735 20.6542 17.538 20.6547C20.906 20.6574 24.2739 20.6556 27.6418 20.6563C28.643 20.6565 29.2094 21.2672 29.2053 22.2651C29.192 25.52 29.1978 28.7751 29.1963 32.0301C29.1961 32.5758 29.199 33.1214 29.1955 33.667C29.1904 34.4781 28.6409 35.0762 27.8548 35.1322C27.1214 35.1845 26.5045 34.6577 26.3769 33.8453Z" fill="#7F02B7"/>
<path d="M29.7762 16.7017C29.4984 17.8498 28.4228 18.5105 27.3006 18.2434C26.2006 17.9816 25.5321 16.9022 25.7829 15.793C26.0283 14.7079 27.118 14.01 28.1952 14.248C29.3362 14.5001 30.0218 15.551 29.7762 16.7017Z" fill="#7F02B7"/>
<defs>
<radialGradient id="paint0_angular_24_375" cx="0" cy="0" r="1" gradientUnits="userSpaceOnUse" gradientTransform="translate(21.0598 21.9402) rotate(90) scale(21.0598)">
<stop offset="0.21875" stop-color="#8F00FF"/>
<stop offset="0.502414" stop-color="#EA74B4"/>
<stop offset="0.72686" stop-color="#FECB47"/>
<stop offset="0.957143" stop-color="#F36FFF"/>
</radialGradient>
</defs>
</svg>
