<svg width="43" height="32" viewBox="0 0 43 32" fill="none" xmlns="http://www.w3.org/2000/svg">
<path fill-rule="evenodd" clip-rule="evenodd" d="M20.9967 0C17.6835 0 14.9977 2.66547 14.9977 5.95345C14.9977 9.24147 17.6835 11.9069 20.9967 11.9069C24.3101 11.9069 26.9958 9.24147 26.9958 5.95345C26.9958 2.66547 24.3101 0 20.9967 0ZM9.26721 11.5821C15.5119 11.5821 20.5742 16.6059 20.5742 22.803V32H14.9501V22.803C14.9501 22.1429 14.8359 21.5096 14.626 20.921L6.3649 29.1193L2.38804 25.1725L10.3547 17.2666C10.0027 17.1989 9.63912 17.1634 9.26721 17.1634H0V11.5821H9.26721ZM32.8663 11.5821C26.6216 11.5821 21.5592 16.6059 21.5592 22.803V32H27.1833V22.803C27.1833 22.2862 27.2534 21.7854 27.3846 21.3098L36.0263 29.8858L40.0033 25.939L31.3616 17.3632C31.8408 17.233 32.3455 17.1634 32.8663 17.1634H42.1333V11.5821H32.8663Z" fill="#5700FA"/>
</svg>
