<svg width="100" height="100" viewBox="0 0 100 100" fill="none" xmlns="http://www.w3.org/2000/svg">
<g filter="url(#filter0_i_1620_44)">
<rect width="100" height="100" rx="24.5" fill="#D9D9D9"/>
<rect width="100" height="100" rx="24.5" fill="url(#paint0_linear_1620_44)"/>
<rect width="100" height="100" rx="24.5" fill="#7028F3"/>
<g filter="url(#filter1_dd_1620_44)">
<path fill-rule="evenodd" clip-rule="evenodd" d="M49.8838 24C44.3793 24 39.917 28.3314 39.917 33.6744C39.917 39.0174 44.3793 43.3487 49.8838 43.3487C55.3886 43.3487 59.8506 39.0174 59.8506 33.6744C59.8506 28.3314 55.3886 24 49.8838 24ZM30.3965 42.8209C40.7714 42.8209 49.1818 50.9846 49.1818 61.0549V76H39.838V61.0549C39.838 59.9823 39.6482 58.9532 39.2994 57.9966L25.5746 71.3188L18.9675 64.9053L32.2032 52.0582C31.6184 51.9482 31.0144 51.8906 30.3965 51.8906H15V42.8209H30.3965ZM69.6038 42.8209C59.2289 42.8209 50.8182 50.9846 50.8182 61.0549V76H60.1621V61.0549C60.1621 60.2151 60.2786 59.4012 60.4966 58.6285L74.8538 72.5644L81.4612 66.1509L67.104 52.2152C67.9001 52.0036 68.7385 51.8906 69.6038 51.8906H85V42.8209H69.6038Z" fill="white"/>
</g>
</g>
<defs>
<filter id="filter0_i_1620_44" x="0" y="0" width="100" height="104" filterUnits="userSpaceOnUse" color-interpolation-filters="sRGB">
<feFlood flood-opacity="0" result="BackgroundImageFix"/>
<feBlend mode="normal" in="SourceGraphic" in2="BackgroundImageFix" result="shape"/>
<feColorMatrix in="SourceAlpha" type="matrix" values="0 0 0 0 0 0 0 0 0 0 0 0 0 0 0 0 0 0 127 0" result="hardAlpha"/>
<feOffset dy="4"/>
<feGaussianBlur stdDeviation="4"/>
<feComposite in2="hardAlpha" operator="arithmetic" k2="-1" k3="1"/>
<feColorMatrix type="matrix" values="0 0 0 0 1 0 0 0 0 1 0 0 0 0 1 0 0 0 0.2 0"/>
<feBlend mode="normal" in2="shape" result="effect1_innerShadow_1620_44"/>
</filter>
<filter id="filter1_dd_1620_44" x="11" y="24" width="78" height="60" filterUnits="userSpaceOnUse" color-interpolation-filters="sRGB">
<feFlood flood-opacity="0" result="BackgroundImageFix"/>
<feColorMatrix in="SourceAlpha" type="matrix" values="0 0 0 0 0 0 0 0 0 0 0 0 0 0 0 0 0 0 127 0" result="hardAlpha"/>
<feOffset dy="2"/>
<feGaussianBlur stdDeviation="1"/>
<feComposite in2="hardAlpha" operator="out"/>
<feColorMatrix type="matrix" values="0 0 0 0 0 0 0 0 0 0 0 0 0 0 0 0 0 0 0.25 0"/>
<feBlend mode="normal" in2="BackgroundImageFix" result="effect1_dropShadow_1620_44"/>
<feColorMatrix in="SourceAlpha" type="matrix" values="0 0 0 0 0 0 0 0 0 0 0 0 0 0 0 0 0 0 127 0" result="hardAlpha"/>
<feOffset dy="4"/>
<feGaussianBlur stdDeviation="2"/>
<feComposite in2="hardAlpha" operator="out"/>
<feColorMatrix type="matrix" values="0 0 0 0 0 0 0 0 0 0 0 0 0 0 0 0 0 0 0.2 0"/>
<feBlend mode="normal" in2="effect1_dropShadow_1620_44" result="effect2_dropShadow_1620_44"/>
<feBlend mode="normal" in="SourceGraphic" in2="effect2_dropShadow_1620_44" result="shape"/>
</filter>
<linearGradient id="paint0_linear_1620_44" x1="50" y1="0" x2="50" y2="100" gradientUnits="userSpaceOnUse">
<stop stop-color="#010B2C"/>
<stop offset="1" stop-color="#1C2233"/>
</linearGradient>
</defs>
</svg>
